<svg width="104" height="16" viewBox="0 0 104 16" fill="none" xmlns="http://www.w3.org/2000/svg">
<g clip-path="url(#clip0_1806_14512)">
<path d="M2.80892 7.63342H4.93137C5.31663 7.63342 5.65286 7.66833 5.91904 7.74516C6.17121 7.815 6.38136 7.91975 6.54247 8.05245C6.69657 8.17816 6.80865 8.3318 6.8787 8.51338C6.95575 8.70194 6.99077 8.91844 6.99077 9.15589C6.99077 9.39335 6.95575 9.60985 6.8857 9.81238C6.82266 10.0079 6.71058 10.1755 6.56348 10.3222C6.41638 10.4689 6.20624 10.5946 5.94706 10.6854C5.68088 10.7761 5.34465 10.825 4.93837 10.825H2.80892V7.63342ZM6.10117 5.16113C5.73692 5.41954 5.17653 5.55223 4.43403 5.55223H2.80892V2.4095H4.56712C5.29562 2.4095 5.83498 2.53521 6.1572 2.77964C6.46541 3.01011 6.61952 3.4012 6.61952 3.98086C6.61952 4.56052 6.4514 4.9167 6.10117 5.16113ZM7.67024 6.37632C7.81734 6.2995 7.95743 6.22268 8.09052 6.13189C8.39173 5.92936 8.6439 5.69889 8.84004 5.44747C9.03617 5.19605 9.18327 4.9167 9.28134 4.62338C9.3794 4.33005 9.42143 4.02277 9.42143 3.70849C9.42143 3.16375 9.33037 2.6679 9.14124 2.2349C8.95211 1.78793 8.65091 1.40382 8.25163 1.09653C7.85236 0.789243 7.34802 0.551792 6.7386 0.391163C6.14319 0.230535 5.4147 0.146729 4.57412 0.146729H0.238163C0.105072 0.146729 0 0.251486 0 0.384179V12.8853C0 13.018 0.105072 13.1227 0.238163 13.1227H4.9734C5.72291 13.1227 6.40237 13.0249 6.99077 12.8364C7.58618 12.6408 8.09052 12.3685 8.50381 12.0263C8.91709 11.6771 9.23931 11.258 9.44945 10.7761C9.6666 10.3012 9.77167 9.77047 9.77167 9.21177C9.77167 7.82896 9.06419 6.87916 7.67024 6.38331" fill="#353535"/>
<path d="M14.1637 0.139648H11.8241C11.691 0.139648 11.5859 0.244406 11.5859 0.377099V12.8782C11.5859 13.0109 11.691 13.1156 11.8241 13.1156H14.1637C14.2968 13.1156 14.4019 13.0109 14.4019 12.8782V0.377099C14.4019 0.244406 14.2968 0.139648 14.1637 0.139648Z" fill="#353535"/>
<path d="M22.66 10.79C22.0786 10.79 21.5533 10.6923 21.098 10.5037C20.6427 10.3151 20.2504 10.0428 19.9282 9.69358C19.6059 9.34439 19.3538 8.90441 19.1857 8.39459C19.0105 7.87778 18.9195 7.28416 18.9195 6.62767C18.9195 5.97119 19.0105 5.37756 19.1857 4.86076C19.3608 4.35094 19.6059 3.91096 19.9282 3.55478C20.2434 3.20559 20.6356 2.93322 21.098 2.74465C21.5603 2.55609 22.0856 2.45832 22.66 2.45832C23.2344 2.45832 23.7598 2.55609 24.2221 2.74465C24.6774 2.93322 25.0627 3.20559 25.3779 3.55478C25.6931 3.91096 25.9453 4.35094 26.1134 4.86076C26.2885 5.37756 26.3726 5.97119 26.3726 6.62767C26.3726 7.28416 26.2885 7.87778 26.1134 8.40157C25.9453 8.91139 25.6931 9.35138 25.3779 9.70057C25.0627 10.0498 24.6704 10.3221 24.2221 10.5107C23.7668 10.6993 23.2414 10.797 22.66 10.797M27.4303 1.89262C26.8559 1.30598 26.1554 0.838062 25.3499 0.502837C24.5443 0.167612 23.6407 0 22.667 0C21.6934 0 20.7898 0.167612 19.9772 0.495853C19.1646 0.824094 18.4642 1.29201 17.8828 1.88564C17.3084 2.47927 16.8531 3.18464 16.5378 3.99476C16.2226 4.7979 16.0615 5.68485 16.0615 6.62767C16.0615 7.57049 16.2226 8.45744 16.5378 9.26059C16.8531 10.0707 17.3084 10.7761 17.8828 11.3697C18.4572 11.9633 19.1646 12.4313 19.9772 12.7595C20.7827 13.0877 21.6864 13.2553 22.667 13.2553C23.6477 13.2553 24.5443 13.0877 25.3499 12.7595C26.1554 12.4313 26.8559 11.9633 27.4303 11.3697C28.0047 10.7761 28.46 10.0707 28.7752 9.26059C29.0904 8.45744 29.2515 7.57049 29.2515 6.62767C29.2515 5.68485 29.0904 4.7979 28.7752 3.99476C28.46 3.18464 28.0047 2.47927 27.4303 1.89262Z" fill="#353535"/>
<path d="M37.1811 8.44343C37.1811 9.48402 36.971 10.2872 36.5507 10.8389C36.1374 11.3836 35.563 11.649 34.7995 11.649C34.4072 11.649 34.05 11.5722 33.7348 11.4325C33.4336 11.2928 33.1534 11.0554 32.8942 10.7202V6.59271C33.1884 6.2086 33.5176 5.90829 33.8608 5.69878C34.2111 5.48228 34.6314 5.37752 35.1007 5.37752C35.4299 5.37752 35.7241 5.43339 35.9833 5.54513C36.2355 5.65687 36.4456 5.83147 36.6207 6.06892C36.7958 6.31335 36.9359 6.63461 37.034 7.01872C37.1321 7.4168 37.1811 7.89869 37.1811 8.45041M38.1618 5.01436C37.8606 4.61628 37.4893 4.31597 37.055 4.11344C36.6277 3.91091 36.1374 3.80615 35.619 3.80615C34.9606 3.80615 34.3792 3.95281 33.8678 4.23915C33.4686 4.46962 33.1043 4.75596 32.7751 5.10515L32.691 4.41375C32.691 4.41375 32.691 4.39978 32.691 4.3928C32.614 4.11344 32.4109 3.95281 32.1237 3.95281H31.206C31.115 3.95281 31.0449 4.02265 31.0449 4.11344V15.8323C31.0449 15.9162 31.115 15.993 31.206 15.993H32.7471C32.8381 15.993 32.9082 15.9231 32.9082 15.8323V12.3404C33.1464 12.5569 33.4125 12.7315 33.6997 12.8642C34.106 13.0528 34.5963 13.1505 35.1567 13.1505C35.7661 13.1505 36.3265 13.0248 36.8169 12.7804C37.3072 12.536 37.7275 12.2007 38.0637 11.7747C38.3999 11.3557 38.6591 10.8529 38.8342 10.2802C39.0094 9.71449 39.1004 9.08594 39.1004 8.42946C39.1004 7.69616 39.0164 7.03269 38.8623 6.46002C38.7011 5.88734 38.47 5.39149 38.1688 5.00039" fill="#353535"/>
<path d="M45.2374 11.3977C45.1183 11.2161 44.9782 11.1812 44.8871 11.1812C44.8031 11.1812 44.726 11.2091 44.635 11.2789C44.5789 11.3208 44.5089 11.3627 44.4248 11.4116C44.3478 11.4605 44.2497 11.5024 44.1446 11.5443C44.0466 11.5792 43.9205 11.6002 43.7804 11.6002C43.5422 11.6002 43.3461 11.5304 43.199 11.3767C43.0519 11.23 42.9748 10.9926 42.9748 10.6713V5.57313H45.3284C45.4195 5.57313 45.4895 5.50329 45.4895 5.4125V4.29508C45.4895 4.20429 45.4195 4.13445 45.3284 4.13445H42.9748V1.27806C42.9748 1.18727 42.9048 1.11743 42.8137 1.11743H42.0362C41.8961 1.11743 41.784 1.15933 41.693 1.23616C41.6019 1.31996 41.5459 1.42472 41.5248 1.55043L41.1816 4.13445L39.8647 4.30207C39.7877 4.30905 39.7246 4.37889 39.7246 4.4627V5.07727C39.7246 5.2379 39.7736 5.36361 39.8717 5.4544C39.9628 5.53821 40.0749 5.57313 40.2079 5.57313H41.1046V10.7761C41.1046 11.5443 41.3077 12.1379 41.707 12.557C42.1062 12.976 42.6876 13.1855 43.4231 13.1855C43.8364 13.1855 44.2497 13.1087 44.642 12.962C45.0342 12.8154 45.3775 12.6059 45.6577 12.3475C45.7137 12.2986 45.7277 12.2148 45.6857 12.1449L45.2304 11.4046L45.2374 11.3977Z" fill="#353535"/>
<path d="M48.9492 3.95996H47.4082C47.3171 3.95996 47.2471 4.0298 47.2471 4.12059V12.8783C47.2471 12.9621 47.3171 13.039 47.4082 13.039H48.9492C49.0333 13.039 49.1103 12.9691 49.1103 12.8783V4.12059C49.1103 4.03678 49.0403 3.95996 48.9492 3.95996Z" fill="#353535"/>
<path d="M62.9241 4.74203C62.6579 4.44173 62.3287 4.21126 61.9435 4.05762C61.5652 3.90397 61.1309 3.82715 60.6476 3.82715C60.3464 3.82715 60.0452 3.86207 59.758 3.93889C59.4638 4.00873 59.1836 4.12745 58.9244 4.28808C58.6652 4.44871 58.4271 4.65124 58.2169 4.88869C58.0908 5.03535 57.9717 5.20297 57.8737 5.39153C57.7056 4.97948 57.4674 4.63728 57.1662 4.3649C56.7739 4.00873 56.2486 3.83413 55.6181 3.83413C55.0578 3.83413 54.5604 3.96683 54.1331 4.2392C53.8109 4.44173 53.5167 4.68616 53.2435 4.97948L53.1735 4.43474C53.1735 4.43474 53.1735 4.42078 53.1735 4.41379C53.0964 4.13444 52.8933 3.97381 52.6061 3.97381H51.6885C51.5974 3.97381 51.5273 4.04365 51.5273 4.13444V12.8922C51.5273 12.983 51.5974 13.0528 51.6885 13.0528H53.2295C53.3136 13.0528 53.3906 12.983 53.3906 12.8922V6.41816C53.6428 6.10388 53.916 5.84548 54.2172 5.6639C54.5184 5.47534 54.8476 5.38455 55.1979 5.38455C55.6952 5.38455 56.0594 5.53121 56.3116 5.84548C56.5708 6.15975 56.7039 6.65561 56.7039 7.31907V12.8922C56.7039 12.983 56.7739 13.0528 56.865 13.0528H58.406C58.4971 13.0528 58.5672 12.983 58.5672 12.8922V7.31907C58.5672 6.99083 58.6162 6.7045 58.7072 6.46704C58.7983 6.22959 58.9244 6.02706 59.0855 5.86643C59.2466 5.7058 59.4287 5.58708 59.6319 5.51026C59.842 5.42645 60.0662 5.38455 60.2973 5.38455C60.8227 5.38455 61.215 5.53819 61.4881 5.85945C61.7613 6.18071 61.9014 6.67656 61.9014 7.31907V12.8922C61.9014 12.983 61.9715 13.0528 62.0625 13.0528H63.6036C63.6947 13.0528 63.7647 12.983 63.7647 12.8922V7.31907C63.7647 6.77433 63.6946 6.28546 63.5616 5.85945C63.4215 5.42645 63.2183 5.05631 62.9521 4.76298" fill="#353535"/>
<path d="M67.624 3.95996H66.083C65.9919 3.95996 65.9219 4.0298 65.9219 4.12059V12.8783C65.9219 12.9621 65.9919 13.039 66.083 13.039H67.624C67.7151 13.039 67.7851 12.9691 67.7851 12.8783V4.12059C67.7851 4.03678 67.7151 3.95996 67.624 3.95996Z" fill="#353535"/>
<path d="M67.5119 1.38289C67.4279 1.29909 67.3298 1.23623 67.2247 1.18734C67.0006 1.08957 66.7344 1.08957 66.5172 1.18734C66.4122 1.23623 66.3141 1.29909 66.2301 1.38289C66.146 1.4667 66.0829 1.56447 66.0339 1.67621C65.9849 1.78796 65.9639 1.90668 65.9639 2.03239C65.9639 2.1581 65.9919 2.27682 66.0339 2.38158C66.0829 2.48634 66.146 2.58411 66.2301 2.66792C66.3141 2.75173 66.4122 2.81458 66.5172 2.86347C66.6223 2.91235 66.7414 2.93331 66.8675 2.93331C66.9936 2.93331 67.1127 2.91235 67.2247 2.86347C67.3298 2.81458 67.4279 2.75173 67.5119 2.66792C67.596 2.58411 67.659 2.49332 67.7081 2.38158C67.7571 2.26984 67.7851 2.15112 67.7851 2.03239C67.7851 1.91366 67.7571 1.78796 67.7081 1.67621C67.659 1.56447 67.589 1.4667 67.5049 1.38289" fill="#353535"/>
<path d="M48.8166 1.38289C48.7326 1.29909 48.6345 1.23623 48.5294 1.18734C48.3053 1.08957 48.0391 1.08957 47.8219 1.18734C47.7169 1.23623 47.6188 1.29909 47.5347 1.38289C47.4507 1.4667 47.3876 1.56447 47.3386 1.67621C47.2896 1.78796 47.2686 1.90668 47.2686 2.03239C47.2686 2.1581 47.2966 2.27682 47.3386 2.38158C47.3876 2.48634 47.4507 2.58411 47.5347 2.66792C47.6188 2.75173 47.7169 2.81458 47.8219 2.86347C47.927 2.91235 48.0461 2.93331 48.1722 2.93331C48.2983 2.93331 48.4173 2.91235 48.5294 2.86347C48.6345 2.81458 48.7326 2.75173 48.8166 2.66792C48.9007 2.58411 48.9637 2.49332 49.0127 2.38158C49.0618 2.26984 49.0898 2.15112 49.0898 2.03239C49.0898 1.91366 49.0618 1.78796 49.0127 1.67621C48.9637 1.56447 48.8937 1.4667 48.8096 1.38289" fill="#353535"/>
<path d="M76.4782 3.95986H69.9568C69.8657 3.95986 69.7956 4.0297 69.7956 4.12049V5.3287C69.7956 5.41949 69.8657 5.48933 69.9568 5.48933H74.3628L69.7746 11.5862C69.6976 11.691 69.6345 11.8027 69.5925 11.9145C69.5505 12.0332 69.5225 12.138 69.5225 12.2357V12.8782C69.5225 12.962 69.5925 13.0389 69.6836 13.0389H76.3031C76.3871 13.0389 76.4642 12.969 76.4642 12.8782V11.677C76.4642 11.5862 76.3942 11.5164 76.3031 11.5164H71.827L76.3871 5.46139C76.4572 5.3706 76.5202 5.26584 76.5623 5.14712C76.6113 5.02839 76.6323 4.90268 76.6323 4.76999V4.11351C76.6323 4.0297 76.5623 3.95288 76.4712 3.95288" fill="#353535"/>
<path d="M83.9313 7.38193H79.5043C79.6163 6.7464 79.8615 6.23658 80.2258 5.86643C80.618 5.46835 81.1714 5.26582 81.8719 5.26582C82.2011 5.26582 82.4953 5.32169 82.7475 5.43343C82.9997 5.53819 83.2168 5.69882 83.3919 5.89437C83.567 6.0969 83.7001 6.33435 83.7912 6.60672C83.8683 6.84417 83.9173 7.10257 83.9243 7.38193M84.5617 4.89568C84.2255 4.54649 83.8192 4.2811 83.3499 4.09952C82.8876 3.91794 82.3762 3.82715 81.8369 3.82715C81.1784 3.82715 80.583 3.94587 80.0576 4.17634C79.5323 4.40681 79.077 4.72807 78.7127 5.13313C78.3485 5.53819 78.0613 6.02008 77.8722 6.56482C77.683 7.10956 77.585 7.70319 77.585 8.33173C77.585 9.09996 77.69 9.79136 77.9072 10.392C78.1243 10.9926 78.4255 11.5024 78.8108 11.9144C79.1961 12.3265 79.6654 12.6408 80.1977 12.8503C80.7231 13.0598 81.3115 13.1715 81.9349 13.1715C82.2571 13.1715 82.5934 13.1436 82.9226 13.0877C83.2518 13.0319 83.5811 12.9481 83.8893 12.8363C84.2045 12.7246 84.4987 12.5779 84.7719 12.4033C85.0521 12.2287 85.2902 12.0122 85.4934 11.7678C85.5424 11.7119 85.5424 11.6281 85.4934 11.5722L85.0661 11.0135C84.968 10.8739 84.8209 10.797 84.6388 10.797C84.5057 10.797 84.3656 10.8459 84.1975 10.9577C84.0644 11.0415 83.9033 11.1392 83.7071 11.237C83.511 11.3348 83.2798 11.4326 83.0067 11.5164C82.7405 11.6002 82.4253 11.6421 82.054 11.6421C81.6617 11.6421 81.2975 11.5792 80.9893 11.4535C80.6811 11.3278 80.4079 11.1323 80.1837 10.8808C79.9596 10.6224 79.7704 10.2942 79.6444 9.91008C79.5253 9.56089 79.4552 9.14186 79.4342 8.67394H85.1151C85.3673 8.67394 85.4864 8.56918 85.5424 8.47839C85.6124 8.36665 85.6475 8.18507 85.6475 7.90572C85.6475 7.27019 85.5494 6.69053 85.3673 6.18769C85.1781 5.68485 84.912 5.25185 84.5757 4.90266" fill="#353535"/>
<path d="M92.8696 4.14138C92.6875 4.03662 92.4913 3.95281 92.2882 3.89694C92.078 3.84107 91.8399 3.80615 91.5877 3.80615C90.9573 3.80615 90.4039 3.98773 89.9346 4.35089C89.5984 4.61628 89.2971 4.9515 89.038 5.36355L88.9749 4.51152C88.9469 4.32296 88.8909 4.18328 88.7998 4.09249C88.7017 3.99472 88.5546 3.95281 88.3445 3.95281H87.4619C87.3708 3.95281 87.3008 4.02265 87.3008 4.11344V12.8712C87.3008 12.955 87.3708 13.0318 87.4619 13.0318H89.0029C89.094 13.0318 89.1641 12.962 89.1641 12.8712V7.32601C89.3952 6.77429 89.6824 6.34827 90.0116 6.05495C90.3409 5.76861 90.7611 5.62894 91.2585 5.62894C91.5387 5.62894 91.7628 5.65687 91.9099 5.70576C92.0921 5.76861 92.2321 5.79655 92.3302 5.79655C92.5404 5.79655 92.6945 5.67782 92.7505 5.46831C92.7505 5.46831 92.7505 5.46133 92.7505 5.45434L92.9466 4.30201C92.9606 4.23915 92.9256 4.16931 92.8696 4.13439" fill="#353535"/>
<path d="M99.9097 9.21868C99.7696 8.94631 99.5804 8.71584 99.3563 8.53426C99.1321 8.35268 98.873 8.19904 98.5928 8.08031C98.3196 7.96159 98.0324 7.85683 97.7452 7.75906C97.458 7.66128 97.1778 7.57748 96.9046 7.49367C96.6454 7.40986 96.4073 7.31907 96.2041 7.21432C96.008 7.11654 95.8539 6.99782 95.7348 6.86512C95.6297 6.7464 95.5807 6.59275 95.5807 6.40419C95.5807 6.25054 95.6157 6.11087 95.6788 5.97817C95.7488 5.84548 95.8469 5.72676 95.973 5.62898C96.1061 5.52422 96.2672 5.44042 96.4563 5.38455C96.6454 5.32169 96.8696 5.29376 97.1078 5.29376C97.3879 5.29376 97.6401 5.32169 97.8432 5.38455C98.0534 5.4474 98.2355 5.51724 98.3896 5.59406C98.5437 5.67089 98.6768 5.74072 98.7819 5.80358C98.915 5.8804 99.0411 5.9223 99.1531 5.9223C99.3563 5.9223 99.5104 5.83151 99.6085 5.64993L99.9517 5.09123C99.9937 5.02837 99.9797 4.94456 99.9237 4.89568C99.5734 4.56744 99.1532 4.30205 98.6838 4.11349C98.2075 3.92492 97.6611 3.82715 97.0657 3.82715C96.5544 3.82715 96.0851 3.89699 95.6858 4.04365C95.2795 4.19031 94.9363 4.38586 94.6561 4.63029C94.3759 4.87473 94.1587 5.16805 94.0116 5.49629C93.8645 5.82453 93.7875 6.16674 93.7875 6.52292C93.7875 6.92099 93.8575 7.2632 93.9976 7.54954C94.1377 7.8289 94.3268 8.07333 94.551 8.26189C94.7752 8.45046 95.0343 8.61109 95.3215 8.72981C95.6017 8.84854 95.8889 8.96028 96.1761 9.05107C96.4633 9.14186 96.7435 9.23265 97.0167 9.31646C97.2829 9.39328 97.521 9.49105 97.7242 9.59581C97.9203 9.70057 98.0744 9.81929 98.1935 9.96595C98.2986 10.0986 98.3546 10.2593 98.3546 10.4688C98.3546 10.6434 98.3196 10.811 98.2565 10.9646C98.1935 11.1113 98.0954 11.251 97.9623 11.3627C97.8292 11.4815 97.6541 11.5792 97.451 11.6491C97.2408 11.7189 96.9957 11.7538 96.7155 11.7538C96.3793 11.7538 96.1061 11.7119 95.8889 11.6421C95.6648 11.5653 95.4756 11.4814 95.3215 11.3907C95.1604 11.2929 95.0203 11.2091 94.9083 11.1323C94.6281 10.9367 94.3339 10.9507 94.1517 11.0694C94.0677 11.1253 93.9976 11.1951 93.9346 11.2929L93.5703 11.8795C93.5283 11.9424 93.5423 12.0262 93.5984 12.0821C93.9556 12.4033 94.3969 12.6687 94.9153 12.8782C95.4266 13.0808 96.008 13.1855 96.6384 13.1855C97.1918 13.1855 97.6891 13.1087 98.1094 12.962C98.5367 12.8154 98.908 12.6059 99.2022 12.3405C99.5034 12.0751 99.7345 11.7538 99.8887 11.3907C100.043 11.0275 100.12 10.6294 100.12 10.2104C100.12 9.83326 100.05 9.50502 99.9097 9.23265" fill="#353535"/>
<path d="M102.088 3.95996V4.23932H101.661V5.48942H101.303V4.23932H100.869V3.95996H102.088Z" fill="#353535"/>
<path d="M103.103 4.86771C103.103 4.86771 103.131 4.92358 103.138 4.9585C103.152 4.93057 103.166 4.89565 103.173 4.86771C103.187 4.83978 103.201 4.81184 103.215 4.78391L103.608 4.0087C103.608 4.0087 103.622 3.98775 103.629 3.98076C103.629 3.97378 103.643 3.9668 103.657 3.9668C103.664 3.9668 103.678 3.9668 103.685 3.9668H103.993V5.49626H103.678V4.6163C103.678 4.57439 103.678 4.5255 103.678 4.47662L103.271 5.26579C103.271 5.26579 103.243 5.3077 103.222 5.32166C103.201 5.33563 103.173 5.34262 103.152 5.34262H103.103C103.103 5.34262 103.054 5.34262 103.033 5.32166C103.012 5.3077 102.991 5.29373 102.984 5.26579L102.578 4.47662C102.578 4.47662 102.578 4.52551 102.578 4.55344C102.578 4.57439 102.578 4.60233 102.578 4.62328V5.50324H102.263V3.97378H102.578C102.578 3.97378 102.599 3.97378 102.606 3.97378C102.613 3.97378 102.627 3.98076 102.634 3.98775C102.634 3.99473 102.648 4.0087 102.655 4.01568L103.047 4.79089C103.047 4.79089 103.075 4.84676 103.089 4.8747" fill="#353535"/>
</g>
<defs>
<clipPath id="clip0_1806_14512">
<rect width="104" height="16" fill="white"/>
</clipPath>
</defs>
</svg>
